# xmcd CD database file
#
# Track frame offsets:
#	183
#	14155
#	25218
#	39143
#	49170
#	59628
#	72640
#	87390
#	99423
#	112873
#	122958
#	136998
#	150398
#	160413
#	169898
#	184658
#	196058
#	208753
#	225828
#	241058
#	256150
#	268883
#	280458
#	292545
#	306368
#
# Disc length: 4300 seconds
#
# Revision: 2
# Processed by: cddbd v1.5.1PL0 Copyright (c) Steve Scherf et al.
# Submitted via: CDex 1.40Beta9
#
DISCID=6010ca19
DTITLE=Various Artist - Italian Graffiti 1966/67
DYEAR=1900
DGENRE=
TTITLE0=Tema - I Giganti
TTITLE1=Bandiera gialla - Gianni Pettenati
TTITLE2=Come potete giudicar
TTITLE3=I Nomadi
TTITLE4=Un ragazzo di strada - I Corvi
TTITLE5=La verit  - Paul Anka
TTITLE6=Dio come ti amo - Gigliola Cinquetti
TTITLE7=Nessuno mi pu  giudicare - Caterina Caselli
TTITLE8=Rider  - Little Tony
TTITLE9=Che colpa abbiamo noi - The Rokes
TTITLE10=C'era un ragazzo che come me ... - Gianni Morandi
TTITLE11=Se telefonando_mina
TTITLE12=the motowns_prendi la chitarra e vai
TTITLE13=Stasera mi butto_rocky roberts
TTITLE14=Bisogna saper perdere_the rocks
TTITLE15=Pietre_ gian pieretti
TTITLE16=Sono bugiarda_ caterina caselli
TTITLE17=Nel sole_albano
TTITLE18=L'immensita_johnny dorelli
TTITLE19=A chi (hurt)_fausto leali
TTITLE20=Cuore matto_little tony
TTITLE21=La banda_mina
TTITLE22=Un mondo d'amore_gianni morandi
TTITLE23=La mia sereneta_jimmi fontana
TTITLE24=L'ora dell'amore
EXTD=
EXTT0=
EXTT1=
EXTT2=
EXTT3=
EXTT4=
EXTT5=
EXTT6=
EXTT7=
EXTT8=
EXTT9=
EXTT10=
EXTT11=MIna\n
EXTT12=The Motowns\n
EXTT13=Rocky Roberts\n
EXTT14=The Rokes\n
EXTT15=Gian Pieretti\n
EXTT16=Caterina Caselli\n
EXTT17=Albano\n
EXTT18=Johnny Dorelli\n
EXTT19=Fausto Leali\n
EXTT20=Lttle Tony\n
EXTT21=Mina\n
EXTT22=Gianni Morandi\n
EXTT23=Jimmi Fontana\n
EXTT24=I Camaleonti\n
PLAYORDER=
